#!OML:ASF X:\für Bonn\!DataBase\2005_08_11_Bastian_Final\c3d\Bastian.ASF
:FULLY-SPECIFIED
:DEGREES
226
root 0.327986 17.2121 0.352077 151.987 -49.9437 -165.991
lowerback 14.0089 -3.74842 6.94629
upperback 5.35907 -4.5858 4.72702
thorax -2.25862 -2.55642 1.79901
lowerneck 4.48628 -15.7743 -4.45121
upperneck -14.3804 -20.5391 16.3161
head -2.7824 -11.0655 6.03387
rclavicle -3.84524e-014 2.78299e-014
rhumerus -20.3509 29.4166 -53.2757
rradius 105.276
rwrist -250.649
rhand -4.81944 -19.603
rfingers 7.12502
rthumb 20.9669 -408.49
lclavicle -3.84524e-014 2.78299e-014
lhumerus 388.808 -39.7101 -295.924
lradius 89.787
lwrist -142.739
lhand -26.6742 26.6842
lfingers 7.12502
lthumb -0.105435 56.6639
rfemur 0.660979 -10.7954 28.8925
rtibia 36.1656
rfoot -14.4546 -7.69015
rtoes 1.32181
lfemur 3.47751 5.10703 2.75083
ltibia 54.6167
lfoot -6.55951 -4.26715
ltoes -33.5685
227
root 0.348713 17.1987 0.399073 152.102 -49.224 -166.087
lowerback 14.065 -3.67266 7.10229
upperback 5.46795 -4.48682 4.74719
thorax -2.17801 -2.51175 1.71681
lowerneck 4.46698 -15.694 -4.43102
upperneck -14.497 -20.4264 16.3248
head -2.8267 -11.0178 6.04422
rclavicle 1.31943e-014 -3.97569e-015
rhumerus -23.3847 29.9122 -56.9536
rradius 103.78
rwrist -250.281
rhand -4.70102 -18.7066
rfingers 7.12502
rthumb 21.0807 -407.581
lclavicle 1.31943e-014 -3.97569e-015
lhumerus 384.709 -40.1945 -293.4
lradius 89.0544
lwrist -143.025
lhand -27.3504 27.2065
lfingers 7.12502
lthumb -0.758472 57.1849
rfemur 0.390222 -10.4658 29.0503
rtibia 36.3554
rfoot -14.4171 -7.31917
rtoes 1.5097
lfemur 3.8165 4.75367 2.74416
ltibia 54.837
lfoot -6.70896 -4.78514
ltoes -33.717
228
root 0.368821 17.1879 0.447052 152.27 -48.4977 -166.2
lowerback 14.0908 -3.60942 7.23742
upperback 5.56628 -4.40779 4.75447
thorax -2.09222 -2.47587 1.63405
lowerneck 4.42977 -15.5921 -4.40265
upperneck -14.5748 -20.2866 16.3467
head -2.85851 -10.9569 6.05347
rclavicle 2.60905e-015 -2.78299e-014
rhumerus -26.2379 29.9718 -60.6071
rradius 102.006
rwrist -249.846
rhand -4.37364 -17.6806
rfingers 7.12502
rthumb 21.3951 -406.519
lclavicle 2.60905e-015 -2.78299e-014
lhumerus 380.574 -40.3933 -290.791
lradius 88.0036
lwrist -143.201
lhand -27.9609 27.4828
lfingers 7.12502
lthumb -1.34819 57.4583
rfemur 0.0977427 -10.0591 29.2234
rtibia 36.4953
rfoot -14.3396 -7.00564
rtoes 1.58261
lfemur 4.16101 4.43092 2.71414
ltibia 55.0232
lfoot -6.85744 -5.29555
ltoes -33.6347
229
root 0.385388 17.183 0.495728 152.468 -47.7728 -166.333
lowerback 14.0912 -3.56304 7.37448
upperback 5.66124 -4.35326 4.75683
thorax -1.99708 -2.45153 1.54747
lowerneck 4.36822 -15.4774 -4.36801
upperneck -14.64 -20.1315 16.3279
head -2.88956 -10.885 6.04814
rclavicle -5.20567e-015 2.46493e-014
rhumerus -28.893 29.6323 -64.115
rradius 99.9595
rwrist -249.511
rhand -3.99798 -16.7395
rfingers 7.12502
rthumb 21.7559 -405.537
lclavicle -5.20567e-015 2.46493e-014
lhumerus 376.493 -40.314 -288.235
lradius 86.6909
lwrist -143.246
lhand -28.2806 27.4111
lfingers 7.12502
lthumb -1.65693 57.3844
rfemur -0.165438 -9.60744 29.377
rtibia 36.5728
rfoot -14.2451 -6.6982
rtoes 1.60056
lfemur 4.53787 4.06486 2.62016
ltibia 55.1582
lfoot -6.96568 -5.7882
ltoes -33.0468
230
root 0.398004 17.1835 0.544891 152.668 -47.0507 -166.49
lowerback 14.0942 -3.52445 7.54041
upperback 5.74318 -4.30106 4.72069
thorax -1.92183 -2.42617 1.40593
lowerneck 4.34811 -15.3654 -4.29658
upperneck -14.6986 -19.9786 16.3137
head -2.92849 -10.8172 6.04317
rclavicle 4.44159e-014 -2.3059e-014
rhumerus -31.363 28.8559 -67.4281
rradius 97.7155
rwrist -249.237
rhand -3.54089 -15.845
rfingers 7.12502
rthumb 22.1948 -404.591
lclavicle 4.44159e-014 -2.3059e-014
lhumerus 372.463 -39.9999 -285.721
lradius 85.1542
lwrist -143.198
lhand -28.3381 26.9531
lfingers 7.12502
lthumb -1.71243 56.9259
rfemur -0.361672 -9.13752 29.5021
rtibia 36.5754
rfoot -14.105 -6.43131
rtoes 1.5165
lfemur 4.96584 3.62441 2.44401
ltibia 55.2249
lfoot -7.00069 -6.1871
ltoes -32.104
231
root 0.408499 17.1877 0.594725 152.908 -46.3034 -166.653
lowerback 14.0609 -3.48452 7.74424
upperback 5.81911 -4.24421 4.6658
thorax -1.83666 -2.39639 1.22087
lowerneck 4.27844 -15.2563 -4.20198
upperneck -14.7048 -19.8328 16.2679
head -2.94891 -10.749 6.01797
rclavicle 2.48481e-017 -5.32743e-014
rhumerus -33.5219 27.7043 -70.4171
rradius 95.2462
rwrist -249.057
rhand -3.12377 -15.1031
rfingers 7.12502
rthumb 22.5952 -403.801
lclavicle 2.48481e-017 -5.32743e-014
lhumerus 368.428 -39.3382 -283.178
lradius 83.5131
lwrist -143.219
lhand -28.1493 26.2062
lfingers 7.12502
lthumb -1.53012 56.1804
rfemur -0.565021 -8.62457 29.626
rtibia 36.5251
rfoot -13.8946 -6.14154
rtoes 1.45141
lfemur 5.41184 3.17835 2.22503
ltibia 55.2023
lfoot -7.02819 -6.56411
ltoes -31.2653
232
root 0.416695 17.1939 0.645821 153.175 -45.551 -166.847
lowerback 14.0187 -3.45396 7.96226
upperback 5.89049 -4.19691 4.58048
thorax -1.7545 -2.36943 0.997431
lowerneck 4.2126 -15.1389 -4.11027
upperneck -14.7131 -19.6764 16.2455
head -2.9685 -10.6777 6.00015
rclavicle -2.22887e-014 6.44062e-014
rhumerus -35.3887 26.2182 -73.0815
rradius 92.6068
rwrist -248.925
rhand -2.75013 -14.5506
rfingers 7.12502
rthumb 22.9538 -403.204
lclavicle -2.22887e-014 6.44062e-014
lhumerus 364.426 -38.3031 -280.742
lradius 81.8148
lwrist -143.329
lhand -27.7288 25.2701
lfingers 7.12502
lthumb -1.12398 55.2469
rfemur -0.754073 -8.09089 29.7215
rtibia 36.4512
rfoot -13.6756 -5.84495
rtoes 1.27686
lfemur 5.92224 2.70864 1.9213
ltibia 55.0713
lfoot -7.05888 -6.93967
ltoes -31.1548
233
root 0.424445 17.2007 0.696481 153.488 -44.8224 -167.071
lowerback 13.9503 -3.42059 8.16517
upperback 5.9521 -4.14619 4.46057
thorax -1.6701 -2.33813 0.744213
lowerneck 4.10845 -15.0386 -3.93163
upperneck -14.6773 -19.5429 16.1824
head -2.97993 -10.6169 5.95343
rclavicle 1.1537e-013 -9.46215e-014
rhumerus -37.0137 24.3757 -75.387
rradius 89.8478
rwrist -248.762
rhand -2.51595 -14.2421
rfingers 7.12502
rthumb 23.1784 -402.868
lclavicle 1.1537e-013 -9.46215e-014
lhumerus 360.581 -36.9604 -278.493
lradius 80.0465
lwrist -143.585
lhand -27.2052 24.2721
lfingers 7.12502
lthumb -0.61827 54.2509
rfemur -0.98594 -7.5905 29.7776
rtibia 36.395
rfoot -13.4474 -5.54552
rtoes 1.04411
lfemur 6.47418 2.16752 1.51992
ltibia 54.8103
lfoot -7.02133 -7.30802
ltoes -31.1723
234
root 0.433391 17.2046 0.747456 153.763 -44.0827 -167.249
lowerback 13.9107 -3.40091 8.34126
upperback 6.0013 -4.11424 4.37363
thorax -1.61049 -2.3185 0.54626
lowerneck 3.99438 -14.9228 -3.79279
upperneck -14.6141 -19.3932 16.0947
head -2.98134 -10.5429 5.90204
rclavicle 7.30534e-015 -5.00937e-014
rhumerus -38.3553 22.3901 -77.2912
rradius 86.9683
rwrist -248.527
rhand -2.31615 -14.203
rfingers 7.12502
rthumb 23.3701 -402.804
lclavicle 7.30534e-015 -5.00937e-014
lhumerus 356.919 -35.2374 -276.492
lradius 78.2387
lwrist -143.991
lhand -26.7065 23.2346
lfingers 7.12502
lthumb -0.136639 53.2143
rfemur -1.23148 -7.06946 29.8754
rtibia 36.3648
rfoot -13.2351 -5.26077
rtoes 0.892886
lfemur 7.09012 1.59803 1.13479
ltibia 54.4284
lfoot -6.95957 -7.72236
ltoes -31.1621
235
root 0.441063 17.2082 0.797971 154.098 -43.3508 -167.498
lowerback 13.8527 -3.37679 8.47089
upperback 6.04935 -4.08141 4.25372
thorax -1.54221 -2.2966 0.337926
lowerneck 3.83137 -14.8085 -3.60901
upperneck -14.5074 -19.2476 15.9958
head -2.9669 -10.4702 5.83442
rclavicle 2.92462e-014 6.20208e-014
rhumerus -39.502 20.1661 -78.8838
rradius 84.0275
rwrist -248.14
rhand -2.18673 -14.4098
rfingers 7.12502
rthumb 23.4943 -402.995
lclavicle 2.92462e-014 6.20208e-014
lhumerus 353.513 -33.2556 -274.833
lradius 76.4037
lwrist -144.602
lhand -26.3128 22.2819
lfingers 7.12502
lthumb 0.243585 52.2615
rfemur -1.50894 -6.58551 29.895
rtibia 36.3699
rfoot -13.0355 -4.92218
rtoes 0.774492
lfemur 7.78536 0.990977 0.631363
ltibia 53.9144
lfoot -6.93294 -8.16771
ltoes -31.1524
236
root 0.4463 17.2113 0.847414 154.414 -42.6024 -167.7
lowerback 13.7531 -3.36091 8.63485
upperback 6.09314 -4.0593 4.13177
thorax -1.45835 -2.27855 0.107923
lowerneck 3.68876 -14.6884 -3.39321
upperneck -14.4158 -19.0932 15.8741
head -2.96647 -10.3942 5.75975
rclavicle 2.5196e-014 5.88403e-014
rhumerus -40.4782 17.8017 -80.1434
rradius 81.0973
rwrist -247.579
rhand -1.98644 -14.7714
rfingers 7.12502
rthumb 23.6864 -403.332
lclavicle 2.5196e-014 5.88403e-014
lhumerus 350.379 -31.0467 -273.534
lradius 74.5026
lwrist -145.401
lhand -26.0861 21.3474
lfingers 7.12502
lthumb 0.462591 51.3266
rfemur -1.80262 -6.16383 29.9324
rtibia 36.3916
rfoot -12.8595 -4.51566
rtoes 0.419058
lfemur 8.51965 0.38735 0.137413
ltibia 53.3103
lfoot -6.9973 -8.63009
ltoes -31.4715
237
root 0.449755 17.2163 0.896133 154.739 -41.8655 -167.923
lowerback 13.6646 -3.35386 8.76251
upperback 6.12008 -4.04859 4.00596
thorax -1.39744 -2.26647 -0.102692
lowerneck 3.53047 -14.5589 -3.16162
upperneck -14.2773 -18.9296 15.7181
head -2.95506 -10.3098 5.66913
rclavicle -2.72832e-014 -7.07673e-014
rhumerus -41.3271 15.3636 -81.1203
rradius 78.156
rwrist -246.866
rhand -1.69347 -15.3231
rfingers 7.12502
rthumb 23.9674 -403.847
lclavicle -2.72832e-014 -7.07673e-014
lhumerus 347.486 -28.6843 -272.579
lradius 72.5791
lwrist -146.31
lhand -26.0256 20.3147
lfingers 7.12502
lthumb 0.521056 50.2938
rfemur -2.08747 -5.72724 29.9463
rtibia 36.4126
rfoot -12.6767 -4.13686
rtoes 0.195998
lfemur 9.29843 -0.182852 -0.387566
ltibia 52.6125
lfoot -7.10769 -9.14805
ltoes -31.9613
